<svg width="32" height="32" viewBox="0 0 32 32" fill="none" xmlns="http://www.w3.org/2000/svg">
<path d="M13.312 21.3302L13.8999 22.1392L14.312 21.8397V21.3302H13.312ZM18.6891 21.331H17.6891V21.8403L18.1011 22.1398L18.6891 21.331ZM14.312 5.07308C14.312 4.14052 15.068 3.38452 16.0006 3.38452V1.38452C13.9634 1.38452 12.312 3.03594 12.312 5.07308H14.312ZM14.312 21.3302V5.07308H12.312V21.3302H14.312ZM12.422 25.0369C12.422 23.8463 13.0024 22.7913 13.8999 22.1392L12.7242 20.5212C11.331 21.5335 10.422 23.1791 10.422 25.0369H12.422ZM16 28.6156C14.0241 28.6156 12.422 27.0135 12.422 25.0369H10.422C10.422 28.1178 12.9192 30.6156 16 30.6156V28.6156ZM19.578 25.0369C19.578 27.0135 17.9759 28.6156 16 28.6156V30.6156C19.0808 30.6156 21.578 28.1178 21.578 25.0369H19.578ZM18.1011 22.1398C18.998 22.792 19.578 23.8466 19.578 25.0369H21.578C21.578 23.1797 20.6696 21.5346 19.2772 20.5222L18.1011 22.1398ZM17.6891 5.07308V21.331H19.6891V5.07308H17.6891ZM16.0006 3.38452C16.9331 3.38452 17.6891 4.14052 17.6891 5.07308H19.6891C19.6891 3.03595 18.0377 1.38452 16.0006 1.38452V3.38452Z" fill="#9495A4"/>
<ellipse cx="16" cy="25.0402" rx="2.23423" ry="2.23455" fill="#FF0048"/>
<rect x="14.9999" y="12" width="2" height="12" rx="1" fill="#FF0048"/>
<path fill-rule="evenodd" clip-rule="evenodd" d="M18.2342 17.1515C18.2342 17.3886 18.042 17.5808 17.8049 17.5808H16.5175C16.2804 17.5808 16.0883 17.3886 16.0883 17.1515C16.0883 16.9145 16.2804 16.7223 16.5175 16.7223H17.8049C18.042 16.7223 18.2342 16.9145 18.2342 17.1515Z" fill="#9495A4"/>
<path fill-rule="evenodd" clip-rule="evenodd" d="M18.2342 13.7629C18.2342 13.9999 18.042 14.1921 17.8049 14.1921H16.5175C16.2804 14.1921 16.0883 13.9999 16.0883 13.7629C16.0883 13.5258 16.2804 13.3336 16.5175 13.3336H17.8049C18.042 13.3336 18.2342 13.5258 18.2342 13.7629Z" fill="#9495A4"/>
<path fill-rule="evenodd" clip-rule="evenodd" d="M18.2342 10.3741C18.2342 10.6111 18.042 10.8033 17.8049 10.8033H16.5175C16.2804 10.8033 16.0883 10.6111 16.0883 10.3741C16.0883 10.137 16.2804 9.94482 16.5175 9.94482H17.8049C18.042 9.94482 18.2342 10.137 18.2342 10.3741Z" fill="#9495A4"/>
<path fill-rule="evenodd" clip-rule="evenodd" d="M18.2342 6.98552C18.2342 7.22259 18.042 7.41477 17.8049 7.41477H16.5175C16.2804 7.41477 16.0883 7.22259 16.0883 6.98552C16.0883 6.74846 16.2804 6.55627 16.5175 6.55627H17.8049C18.042 6.55627 18.2342 6.74846 18.2342 6.98552Z" fill="#9495A4"/>
</svg>
